<mxfile host="app.diagrams.net" modified="2023-05-27T10:33:51.791Z" agent="Mozilla/5.0 (Macintosh; Intel Mac OS X 10_15_7) AppleWebKit/537.36 (KHTML, like Gecko) Chrome/113.0.0.0 Safari/537.36 Edg/113.0.1774.50" etag="37wiSSs9BbFX0xQDQR-f" version="21.3.0" type="github">
  <diagram id="R2lEEEUBdFMjLlhIrx00" name="Page-1">
    <mxGraphModel dx="1283" dy="749" grid="1" gridSize="10" guides="1" tooltips="1" connect="1" arrows="1" fold="1" page="1" pageScale="1" pageWidth="850" pageHeight="1100" math="0" shadow="0" extFonts="Permanent Marker^https://fonts.googleapis.com/css?family=Permanent+Marker">
      <root>
        <mxCell id="0" />
        <mxCell id="1" parent="0" />
        <mxCell id="U6xVS8FBkHO1pYgC3Y__-1" value="&lt;font face=&quot;宋体&quot;&gt;&lt;span style=&quot;font-size: 14px;&quot;&gt;用户&lt;/span&gt;&lt;/font&gt;" style="whiteSpace=wrap;html=1;align=center;" parent="1" vertex="1">
          <mxGeometry x="450" y="190" width="100" height="40" as="geometry" />
        </mxCell>
        <mxCell id="U6xVS8FBkHO1pYgC3Y__-4" value="&lt;font face=&quot;宋体&quot;&gt;&lt;font style=&quot;font-size: 14px;&quot;&gt;用户&lt;/font&gt;&lt;font style=&quot;font-size: 14px;&quot;&gt;名&lt;/font&gt;&lt;/font&gt;" style="ellipse;whiteSpace=wrap;html=1;align=center;" parent="1" vertex="1">
          <mxGeometry x="250" y="130" width="100" height="40" as="geometry" />
        </mxCell>
        <mxCell id="U6xVS8FBkHO1pYgC3Y__-5" value="&lt;font face=&quot;宋体&quot;&gt;&lt;span style=&quot;font-size: 14px;&quot;&gt;密码&lt;/span&gt;&lt;/font&gt;" style="ellipse;whiteSpace=wrap;html=1;align=center;" parent="1" vertex="1">
          <mxGeometry x="300" y="79.53999999999999" width="100" height="40" as="geometry" />
        </mxCell>
        <mxCell id="U6xVS8FBkHO1pYgC3Y__-6" value="&lt;span style=&quot;font-size: 14px;&quot;&gt;&lt;font face=&quot;宋体&quot;&gt;头像&lt;/font&gt;&lt;font face=&quot;Times New Roman&quot;&gt;&amp;nbsp;URL&lt;/font&gt;&lt;/span&gt;" style="ellipse;whiteSpace=wrap;html=1;align=center;" parent="1" vertex="1">
          <mxGeometry x="10" y="160" width="100" height="40" as="geometry" />
        </mxCell>
        <mxCell id="U6xVS8FBkHO1pYgC3Y__-8" value="&lt;font face=&quot;宋体&quot;&gt;&lt;span style=&quot;font-size: 14px;&quot;&gt;邮箱&lt;/span&gt;&lt;/font&gt;" style="ellipse;whiteSpace=wrap;html=1;align=center;" parent="1" vertex="1">
          <mxGeometry x="100" y="90" width="100" height="40" as="geometry" />
        </mxCell>
        <mxCell id="U6xVS8FBkHO1pYgC3Y__-10" value="&lt;font face=&quot;宋体&quot;&gt;&lt;span style=&quot;font-size: 14px;&quot;&gt;个性签名&lt;/span&gt;&lt;/font&gt;" style="ellipse;whiteSpace=wrap;html=1;align=center;" parent="1" vertex="1">
          <mxGeometry x="70" y="270" width="100" height="40" as="geometry" />
        </mxCell>
        <mxCell id="U6xVS8FBkHO1pYgC3Y__-11" value="" style="endArrow=none;html=1;rounded=0;exitX=0.5;exitY=0;exitDx=0;exitDy=0;" parent="1" source="U6xVS8FBkHO1pYgC3Y__-24" edge="1">
          <mxGeometry relative="1" as="geometry">
            <mxPoint x="190" y="190" as="sourcePoint" />
            <mxPoint x="160" y="130" as="targetPoint" />
          </mxGeometry>
        </mxCell>
        <mxCell id="U6xVS8FBkHO1pYgC3Y__-12" value="" style="endArrow=none;html=1;rounded=0;exitX=0;exitY=0;exitDx=0;exitDy=0;" parent="1" source="U6xVS8FBkHO1pYgC3Y__-24" target="U6xVS8FBkHO1pYgC3Y__-6" edge="1">
          <mxGeometry relative="1" as="geometry">
            <mxPoint x="140" y="190" as="sourcePoint" />
            <mxPoint x="460" y="280" as="targetPoint" />
          </mxGeometry>
        </mxCell>
        <mxCell id="U6xVS8FBkHO1pYgC3Y__-15" value="" style="endArrow=none;html=1;rounded=0;entryX=0.25;entryY=1;entryDx=0;entryDy=0;exitX=0.5;exitY=0;exitDx=0;exitDy=0;" parent="1" source="U6xVS8FBkHO1pYgC3Y__-10" target="U6xVS8FBkHO1pYgC3Y__-24" edge="1">
          <mxGeometry relative="1" as="geometry">
            <mxPoint x="100" y="250" as="sourcePoint" />
            <mxPoint x="165" y="230" as="targetPoint" />
          </mxGeometry>
        </mxCell>
        <mxCell id="U6xVS8FBkHO1pYgC3Y__-16" value="" style="endArrow=none;html=1;rounded=0;exitX=0;exitY=0;exitDx=0;exitDy=0;entryX=0.784;entryY=0.943;entryDx=0;entryDy=0;entryPerimeter=0;" parent="1" source="U6xVS8FBkHO1pYgC3Y__-1" target="U6xVS8FBkHO1pYgC3Y__-4" edge="1">
          <mxGeometry relative="1" as="geometry">
            <mxPoint x="300" y="280" as="sourcePoint" />
            <mxPoint x="393" y="162" as="targetPoint" />
          </mxGeometry>
        </mxCell>
        <mxCell id="U6xVS8FBkHO1pYgC3Y__-17" value="" style="endArrow=none;html=1;rounded=0;entryX=0.5;entryY=1;entryDx=0;entryDy=0;exitX=0.25;exitY=0;exitDx=0;exitDy=0;" parent="1" source="U6xVS8FBkHO1pYgC3Y__-1" target="U6xVS8FBkHO1pYgC3Y__-5" edge="1">
          <mxGeometry relative="1" as="geometry">
            <mxPoint x="300" y="280" as="sourcePoint" />
            <mxPoint x="460" y="280" as="targetPoint" />
          </mxGeometry>
        </mxCell>
        <mxCell id="U6xVS8FBkHO1pYgC3Y__-18" value="" style="endArrow=none;html=1;rounded=0;exitX=1;exitY=0.5;exitDx=0;exitDy=0;entryX=0;entryY=0.5;entryDx=0;entryDy=0;" parent="1" source="U6xVS8FBkHO1pYgC3Y__-24" target="U6xVS8FBkHO1pYgC3Y__-27" edge="1">
          <mxGeometry relative="1" as="geometry">
            <mxPoint x="240" y="210" as="sourcePoint" />
            <mxPoint x="300" y="215" as="targetPoint" />
          </mxGeometry>
        </mxCell>
        <mxCell id="U6xVS8FBkHO1pYgC3Y__-19" value="" style="resizable=0;html=1;whiteSpace=wrap;align=left;verticalAlign=bottom;" parent="U6xVS8FBkHO1pYgC3Y__-18" connectable="0" vertex="1">
          <mxGeometry x="-1" relative="1" as="geometry">
            <mxPoint x="10" y="-10" as="offset" />
          </mxGeometry>
        </mxCell>
        <mxCell id="U6xVS8FBkHO1pYgC3Y__-20" value="" style="resizable=0;html=1;whiteSpace=wrap;align=right;verticalAlign=bottom;" parent="U6xVS8FBkHO1pYgC3Y__-18" connectable="0" vertex="1">
          <mxGeometry x="1" relative="1" as="geometry" />
        </mxCell>
        <mxCell id="U6xVS8FBkHO1pYgC3Y__-58" value="&lt;font face=&quot;Times New Roman&quot; style=&quot;font-size: 14px;&quot;&gt;1&lt;/font&gt;" style="edgeLabel;html=1;align=center;verticalAlign=middle;resizable=0;points=[];" parent="U6xVS8FBkHO1pYgC3Y__-18" vertex="1" connectable="0">
          <mxGeometry x="0.1852" relative="1" as="geometry">
            <mxPoint as="offset" />
          </mxGeometry>
        </mxCell>
        <mxCell id="U6xVS8FBkHO1pYgC3Y__-22" value="" style="endArrow=none;html=1;rounded=0;exitX=1;exitY=0.5;exitDx=0;exitDy=0;entryX=0;entryY=0.5;entryDx=0;entryDy=0;" parent="1" source="U6xVS8FBkHO1pYgC3Y__-27" target="U6xVS8FBkHO1pYgC3Y__-1" edge="1">
          <mxGeometry relative="1" as="geometry">
            <mxPoint x="390" y="215" as="sourcePoint" />
            <mxPoint x="460" y="270" as="targetPoint" />
          </mxGeometry>
        </mxCell>
        <mxCell id="U6xVS8FBkHO1pYgC3Y__-57" value="&lt;font face=&quot;Times New Roman&quot; style=&quot;font-size: 13px;&quot;&gt;1&lt;/font&gt;" style="edgeLabel;html=1;align=center;verticalAlign=middle;resizable=0;points=[];" parent="U6xVS8FBkHO1pYgC3Y__-22" vertex="1" connectable="0">
          <mxGeometry x="0.2821" y="-4" relative="1" as="geometry">
            <mxPoint x="-7" y="-4" as="offset" />
          </mxGeometry>
        </mxCell>
        <mxCell id="U6xVS8FBkHO1pYgC3Y__-24" value="&lt;font face=&quot;宋体&quot; style=&quot;font-size: 14px;&quot;&gt;用户资料&lt;/font&gt;" style="shape=ext;margin=3;double=1;whiteSpace=wrap;html=1;align=center;" parent="1" vertex="1">
          <mxGeometry x="140" y="190" width="100" height="40" as="geometry" />
        </mxCell>
        <mxCell id="U6xVS8FBkHO1pYgC3Y__-27" value="&lt;font face=&quot;宋体&quot; style=&quot;font-size: 14px;&quot;&gt;拥有&lt;/font&gt;" style="shape=rhombus;double=1;perimeter=rhombusPerimeter;whiteSpace=wrap;html=1;align=center;" parent="1" vertex="1">
          <mxGeometry x="285" y="185" width="100" height="50" as="geometry" />
        </mxCell>
        <mxCell id="U6xVS8FBkHO1pYgC3Y__-28" value="&lt;font face=&quot;宋体&quot;&gt;&lt;span style=&quot;font-size: 14px;&quot;&gt;相册&lt;/span&gt;&lt;/font&gt;" style="shape=ext;margin=3;double=1;whiteSpace=wrap;html=1;align=center;" parent="1" vertex="1">
          <mxGeometry x="255" y="390" width="100" height="40" as="geometry" />
        </mxCell>
        <mxCell id="U6xVS8FBkHO1pYgC3Y__-29" value="&lt;span style=&quot;font-size: 14px;&quot;&gt;&lt;font face=&quot;宋体&quot;&gt;封面&lt;/font&gt;&lt;font face=&quot;Times New Roman&quot;&gt; URL&lt;/font&gt;&lt;/span&gt;" style="ellipse;whiteSpace=wrap;html=1;align=center;" parent="1" vertex="1">
          <mxGeometry x="50" y="370" width="100" height="40" as="geometry" />
        </mxCell>
        <mxCell id="U6xVS8FBkHO1pYgC3Y__-30" value="&lt;font face=&quot;宋体&quot;&gt;&lt;span style=&quot;font-size: 14px;&quot;&gt;相册名&lt;/span&gt;&lt;/font&gt;" style="ellipse;whiteSpace=wrap;html=1;align=center;" parent="1" vertex="1">
          <mxGeometry x="50" y="435" width="100" height="40" as="geometry" />
        </mxCell>
        <mxCell id="U6xVS8FBkHO1pYgC3Y__-31" value="" style="endArrow=none;html=1;rounded=0;entryX=1;entryY=0.5;entryDx=0;entryDy=0;exitX=0;exitY=0.25;exitDx=0;exitDy=0;" parent="1" source="U6xVS8FBkHO1pYgC3Y__-28" target="U6xVS8FBkHO1pYgC3Y__-29" edge="1">
          <mxGeometry relative="1" as="geometry">
            <mxPoint x="210" y="330" as="sourcePoint" />
            <mxPoint x="370" y="330" as="targetPoint" />
          </mxGeometry>
        </mxCell>
        <mxCell id="U6xVS8FBkHO1pYgC3Y__-32" value="" style="endArrow=none;html=1;rounded=0;entryX=1;entryY=0.5;entryDx=0;entryDy=0;exitX=0;exitY=1;exitDx=0;exitDy=0;" parent="1" source="U6xVS8FBkHO1pYgC3Y__-28" target="U6xVS8FBkHO1pYgC3Y__-30" edge="1">
          <mxGeometry relative="1" as="geometry">
            <mxPoint x="210" y="330" as="sourcePoint" />
            <mxPoint x="370" y="330" as="targetPoint" />
          </mxGeometry>
        </mxCell>
        <mxCell id="U6xVS8FBkHO1pYgC3Y__-33" value="&lt;font face=&quot;宋体&quot; style=&quot;font-size: 14px;&quot;&gt;拥有&lt;/font&gt;" style="shape=rhombus;double=1;perimeter=rhombusPerimeter;whiteSpace=wrap;html=1;align=center;" parent="1" vertex="1">
          <mxGeometry x="360" y="280" width="90" height="50" as="geometry" />
        </mxCell>
        <mxCell id="U6xVS8FBkHO1pYgC3Y__-34" value="" style="endArrow=none;html=1;rounded=0;entryX=0.5;entryY=1;entryDx=0;entryDy=0;exitX=1;exitY=0.5;exitDx=0;exitDy=0;" parent="1" source="U6xVS8FBkHO1pYgC3Y__-33" target="U6xVS8FBkHO1pYgC3Y__-1" edge="1">
          <mxGeometry relative="1" as="geometry">
            <mxPoint x="290" y="290" as="sourcePoint" />
            <mxPoint x="450" y="290" as="targetPoint" />
          </mxGeometry>
        </mxCell>
        <mxCell id="U6xVS8FBkHO1pYgC3Y__-60" value="&lt;font face=&quot;Times New Roman&quot; style=&quot;font-size: 14px;&quot;&gt;1&lt;/font&gt;" style="edgeLabel;html=1;align=center;verticalAlign=middle;resizable=0;points=[];" parent="U6xVS8FBkHO1pYgC3Y__-34" vertex="1" connectable="0">
          <mxGeometry x="0.045" y="-2" relative="1" as="geometry">
            <mxPoint x="-8" as="offset" />
          </mxGeometry>
        </mxCell>
        <mxCell id="U6xVS8FBkHO1pYgC3Y__-36" value="" style="endArrow=none;html=1;rounded=0;entryX=0.5;entryY=0;entryDx=0;entryDy=0;exitX=0;exitY=0.5;exitDx=0;exitDy=0;" parent="1" source="U6xVS8FBkHO1pYgC3Y__-33" target="U6xVS8FBkHO1pYgC3Y__-28" edge="1">
          <mxGeometry relative="1" as="geometry">
            <mxPoint x="290" y="290" as="sourcePoint" />
            <mxPoint x="450" y="290" as="targetPoint" />
          </mxGeometry>
        </mxCell>
        <mxCell id="U6xVS8FBkHO1pYgC3Y__-61" value="&lt;font face=&quot;Times New Roman&quot; style=&quot;font-size: 14px;&quot;&gt;N&lt;/font&gt;" style="edgeLabel;html=1;align=center;verticalAlign=middle;resizable=0;points=[];" parent="U6xVS8FBkHO1pYgC3Y__-36" vertex="1" connectable="0">
          <mxGeometry x="0.1796" y="-1" relative="1" as="geometry">
            <mxPoint as="offset" />
          </mxGeometry>
        </mxCell>
        <mxCell id="U6xVS8FBkHO1pYgC3Y__-38" value="&lt;font face=&quot;宋体&quot;&gt;&lt;span style=&quot;font-size: 14px;&quot;&gt;照片&lt;/span&gt;&lt;/font&gt;" style="shape=ext;margin=3;double=1;whiteSpace=wrap;html=1;align=center;" parent="1" vertex="1">
          <mxGeometry x="530" y="470" width="100" height="40" as="geometry" />
        </mxCell>
        <mxCell id="U6xVS8FBkHO1pYgC3Y__-39" value="&lt;span style=&quot;font-size: 14px;&quot;&gt;&lt;font face=&quot;宋体&quot;&gt;照片&lt;/font&gt;&lt;font face=&quot;Times New Roman&quot;&gt; URL&lt;/font&gt;&lt;/span&gt;" style="ellipse;whiteSpace=wrap;html=1;align=center;" parent="1" vertex="1">
          <mxGeometry x="470" y="630" width="100" height="40" as="geometry" />
        </mxCell>
        <mxCell id="U6xVS8FBkHO1pYgC3Y__-40" value="&lt;font face=&quot;宋体&quot;&gt;&lt;span style=&quot;font-size: 14px;&quot;&gt;宽度&lt;/span&gt;&lt;/font&gt;" style="ellipse;whiteSpace=wrap;html=1;align=center;" parent="1" vertex="1">
          <mxGeometry x="660" y="590" width="100" height="40" as="geometry" />
        </mxCell>
        <mxCell id="U6xVS8FBkHO1pYgC3Y__-41" value="&lt;font face=&quot;宋体&quot;&gt;&lt;span style=&quot;font-size: 14px;&quot;&gt;高度&lt;/span&gt;&lt;/font&gt;" style="ellipse;whiteSpace=wrap;html=1;align=center;" parent="1" vertex="1">
          <mxGeometry x="700" y="530" width="100" height="40" as="geometry" />
        </mxCell>
        <mxCell id="U6xVS8FBkHO1pYgC3Y__-42" value="" style="endArrow=none;html=1;rounded=0;exitX=0.5;exitY=0;exitDx=0;exitDy=0;entryX=0.25;entryY=1;entryDx=0;entryDy=0;" parent="1" source="U6xVS8FBkHO1pYgC3Y__-39" target="U6xVS8FBkHO1pYgC3Y__-38" edge="1">
          <mxGeometry relative="1" as="geometry">
            <mxPoint x="250" y="440" as="sourcePoint" />
            <mxPoint x="410" y="440" as="targetPoint" />
          </mxGeometry>
        </mxCell>
        <mxCell id="U6xVS8FBkHO1pYgC3Y__-44" value="" style="endArrow=none;html=1;rounded=0;exitX=0.372;exitY=0.017;exitDx=0;exitDy=0;exitPerimeter=0;entryX=0.75;entryY=1;entryDx=0;entryDy=0;" parent="1" source="U6xVS8FBkHO1pYgC3Y__-40" target="U6xVS8FBkHO1pYgC3Y__-38" edge="1">
          <mxGeometry relative="1" as="geometry">
            <mxPoint x="250" y="440" as="sourcePoint" />
            <mxPoint x="610" y="500" as="targetPoint" />
          </mxGeometry>
        </mxCell>
        <mxCell id="U6xVS8FBkHO1pYgC3Y__-45" value="" style="endArrow=none;html=1;rounded=0;exitX=0;exitY=0.5;exitDx=0;exitDy=0;entryX=1;entryY=1;entryDx=0;entryDy=0;" parent="1" source="U6xVS8FBkHO1pYgC3Y__-41" target="U6xVS8FBkHO1pYgC3Y__-38" edge="1">
          <mxGeometry relative="1" as="geometry">
            <mxPoint x="250" y="440" as="sourcePoint" />
            <mxPoint x="410" y="440" as="targetPoint" />
          </mxGeometry>
        </mxCell>
        <mxCell id="U6xVS8FBkHO1pYgC3Y__-46" value="&lt;font face=&quot;宋体&quot;&gt;&lt;span style=&quot;font-size: 14px;&quot;&gt;文件大小&lt;/span&gt;&lt;/font&gt;" style="ellipse;whiteSpace=wrap;html=1;align=center;" parent="1" vertex="1">
          <mxGeometry x="700.45" y="475" width="100" height="40" as="geometry" />
        </mxCell>
        <mxCell id="U6xVS8FBkHO1pYgC3Y__-47" value="" style="endArrow=none;html=1;rounded=0;exitX=0;exitY=0.5;exitDx=0;exitDy=0;entryX=1;entryY=0.5;entryDx=0;entryDy=0;" parent="1" source="U6xVS8FBkHO1pYgC3Y__-46" target="U6xVS8FBkHO1pYgC3Y__-38" edge="1">
          <mxGeometry relative="1" as="geometry">
            <mxPoint x="697.1999999999998" y="459.55999999999995" as="sourcePoint" />
            <mxPoint x="630" y="470" as="targetPoint" />
          </mxGeometry>
        </mxCell>
        <mxCell id="U6xVS8FBkHO1pYgC3Y__-48" value="&lt;font face=&quot;宋体&quot; style=&quot;font-size: 14px;&quot;&gt;包含&lt;/font&gt;" style="shape=rhombus;double=1;perimeter=rhombusPerimeter;whiteSpace=wrap;html=1;align=center;" parent="1" vertex="1">
          <mxGeometry x="425" y="385" width="90" height="50" as="geometry" />
        </mxCell>
        <mxCell id="U6xVS8FBkHO1pYgC3Y__-53" value="" style="endArrow=none;html=1;rounded=0;entryX=0;entryY=0.5;entryDx=0;entryDy=0;exitX=1;exitY=0.5;exitDx=0;exitDy=0;" parent="1" source="U6xVS8FBkHO1pYgC3Y__-28" target="U6xVS8FBkHO1pYgC3Y__-48" edge="1">
          <mxGeometry relative="1" as="geometry">
            <mxPoint x="120" y="370" as="sourcePoint" />
            <mxPoint x="280" y="370" as="targetPoint" />
          </mxGeometry>
        </mxCell>
        <mxCell id="U6xVS8FBkHO1pYgC3Y__-54" value="&lt;font face=&quot;Times New Roman&quot; style=&quot;font-size: 14px;&quot;&gt;1&lt;/font&gt;" style="edgeLabel;html=1;align=center;verticalAlign=middle;resizable=0;points=[];" parent="U6xVS8FBkHO1pYgC3Y__-53" vertex="1" connectable="0">
          <mxGeometry x="-0.4321" relative="1" as="geometry">
            <mxPoint x="10" as="offset" />
          </mxGeometry>
        </mxCell>
        <mxCell id="U6xVS8FBkHO1pYgC3Y__-55" value="" style="endArrow=none;html=1;rounded=0;exitX=0;exitY=0.5;exitDx=0;exitDy=0;entryX=1;entryY=0.5;entryDx=0;entryDy=0;" parent="1" source="U6xVS8FBkHO1pYgC3Y__-38" target="U6xVS8FBkHO1pYgC3Y__-48" edge="1">
          <mxGeometry relative="1" as="geometry">
            <mxPoint x="120" y="450" as="sourcePoint" />
            <mxPoint x="280" y="450" as="targetPoint" />
          </mxGeometry>
        </mxCell>
        <mxCell id="U6xVS8FBkHO1pYgC3Y__-56" value="&lt;font face=&quot;Times New Roman&quot; style=&quot;font-size: 14px;&quot;&gt;N&lt;/font&gt;" style="edgeLabel;html=1;align=center;verticalAlign=middle;resizable=0;points=[];" parent="U6xVS8FBkHO1pYgC3Y__-55" vertex="1" connectable="0">
          <mxGeometry x="0.1667" relative="1" as="geometry">
            <mxPoint as="offset" />
          </mxGeometry>
        </mxCell>
        <mxCell id="U6xVS8FBkHO1pYgC3Y__-62" value="&lt;font face=&quot;宋体&quot;&gt;&lt;span style=&quot;font-size: 14px;&quot;&gt;照片名称&lt;/span&gt;&lt;/font&gt;" style="ellipse;whiteSpace=wrap;html=1;align=center;" parent="1" vertex="1">
          <mxGeometry x="580" y="630" width="100" height="40" as="geometry" />
        </mxCell>
        <mxCell id="U6xVS8FBkHO1pYgC3Y__-63" value="" style="endArrow=none;html=1;rounded=0;exitX=0.5;exitY=0;exitDx=0;exitDy=0;entryX=0.5;entryY=1;entryDx=0;entryDy=0;" parent="1" source="U6xVS8FBkHO1pYgC3Y__-62" target="U6xVS8FBkHO1pYgC3Y__-38" edge="1">
          <mxGeometry relative="1" as="geometry">
            <mxPoint x="707" y="581" as="sourcePoint" />
            <mxPoint x="626" y="520" as="targetPoint" />
          </mxGeometry>
        </mxCell>
        <mxCell id="U6xVS8FBkHO1pYgC3Y__-64" value="&lt;font face=&quot;宋体&quot;&gt;&lt;span style=&quot;font-size: 14px;&quot;&gt;标签&lt;/span&gt;&lt;/font&gt;" style="shape=ext;margin=3;double=1;whiteSpace=wrap;html=1;align=center;" parent="1" vertex="1">
          <mxGeometry x="255" y="570" width="100" height="40" as="geometry" />
        </mxCell>
        <mxCell id="U6xVS8FBkHO1pYgC3Y__-65" value="&lt;font face=&quot;宋体&quot;&gt;&lt;span style=&quot;font-size: 14px;&quot;&gt;标签名&lt;/span&gt;&lt;/font&gt;" style="ellipse;whiteSpace=wrap;html=1;align=center;" parent="1" vertex="1">
          <mxGeometry x="255" y="640" width="100" height="40" as="geometry" />
        </mxCell>
        <mxCell id="U6xVS8FBkHO1pYgC3Y__-66" value="" style="endArrow=none;html=1;rounded=0;exitX=0.5;exitY=0;exitDx=0;exitDy=0;entryX=0.5;entryY=1;entryDx=0;entryDy=0;" parent="1" source="U6xVS8FBkHO1pYgC3Y__-65" target="U6xVS8FBkHO1pYgC3Y__-64" edge="1">
          <mxGeometry relative="1" as="geometry">
            <mxPoint x="160" y="530" as="sourcePoint" />
            <mxPoint x="320" y="530" as="targetPoint" />
          </mxGeometry>
        </mxCell>
        <mxCell id="U6xVS8FBkHO1pYgC3Y__-67" value="&lt;font face=&quot;宋体&quot; style=&quot;font-size: 14px;&quot;&gt;拥有&lt;/font&gt;" style="shape=rhombus;double=1;perimeter=rhombusPerimeter;whiteSpace=wrap;html=1;align=center;" parent="1" vertex="1">
          <mxGeometry x="260" y="475" width="90" height="50" as="geometry" />
        </mxCell>
        <mxCell id="U6xVS8FBkHO1pYgC3Y__-68" value="" style="endArrow=none;html=1;rounded=0;entryX=0.5;entryY=0;entryDx=0;entryDy=0;exitX=0.5;exitY=1;exitDx=0;exitDy=0;" parent="1" source="U6xVS8FBkHO1pYgC3Y__-28" target="U6xVS8FBkHO1pYgC3Y__-67" edge="1">
          <mxGeometry relative="1" as="geometry">
            <mxPoint x="365" y="420" as="sourcePoint" />
            <mxPoint x="410" y="420" as="targetPoint" />
          </mxGeometry>
        </mxCell>
        <mxCell id="U6xVS8FBkHO1pYgC3Y__-69" value="&lt;font face=&quot;Times New Roman&quot; style=&quot;font-size: 14px;&quot;&gt;1&lt;/font&gt;" style="edgeLabel;html=1;align=center;verticalAlign=middle;resizable=0;points=[];" parent="U6xVS8FBkHO1pYgC3Y__-68" vertex="1" connectable="0">
          <mxGeometry x="-0.4321" relative="1" as="geometry">
            <mxPoint y="13" as="offset" />
          </mxGeometry>
        </mxCell>
        <mxCell id="U6xVS8FBkHO1pYgC3Y__-70" value="" style="endArrow=none;html=1;rounded=0;exitX=0.5;exitY=0;exitDx=0;exitDy=0;entryX=0.5;entryY=1;entryDx=0;entryDy=0;" parent="1" source="U6xVS8FBkHO1pYgC3Y__-64" target="U6xVS8FBkHO1pYgC3Y__-67" edge="1">
          <mxGeometry relative="1" as="geometry">
            <mxPoint x="345" y="559.44" as="sourcePoint" />
            <mxPoint x="305" y="559.44" as="targetPoint" />
          </mxGeometry>
        </mxCell>
        <mxCell id="U6xVS8FBkHO1pYgC3Y__-71" value="&lt;font face=&quot;Times New Roman&quot; style=&quot;font-size: 14px;&quot;&gt;N&lt;/font&gt;" style="edgeLabel;html=1;align=center;verticalAlign=middle;resizable=0;points=[];" parent="U6xVS8FBkHO1pYgC3Y__-70" vertex="1" connectable="0">
          <mxGeometry x="0.1667" relative="1" as="geometry">
            <mxPoint as="offset" />
          </mxGeometry>
        </mxCell>
        <mxCell id="U6xVS8FBkHO1pYgC3Y__-72" value="&lt;font face=&quot;宋体&quot;&gt;&lt;span style=&quot;font-size: 14px;&quot;&gt;标注&lt;/span&gt;&lt;/font&gt;" style="shape=rhombus;perimeter=rhombusPerimeter;whiteSpace=wrap;html=1;align=center;" parent="1" vertex="1">
          <mxGeometry x="400" y="565" width="110" height="50" as="geometry" />
        </mxCell>
        <mxCell id="U6xVS8FBkHO1pYgC3Y__-73" value="" style="endArrow=none;html=1;rounded=0;exitX=0;exitY=1;exitDx=0;exitDy=0;entryX=1;entryY=0.5;entryDx=0;entryDy=0;" parent="1" source="U6xVS8FBkHO1pYgC3Y__-38" target="U6xVS8FBkHO1pYgC3Y__-72" edge="1">
          <mxGeometry relative="1" as="geometry">
            <mxPoint x="315" y="660" as="sourcePoint" />
            <mxPoint x="455" y="565" as="targetPoint" />
          </mxGeometry>
        </mxCell>
        <mxCell id="U6xVS8FBkHO1pYgC3Y__-74" value="&lt;font face=&quot;Times New Roman&quot; style=&quot;font-size: 14px;&quot;&gt;N&lt;/font&gt;" style="edgeLabel;html=1;align=center;verticalAlign=middle;resizable=0;points=[];" parent="U6xVS8FBkHO1pYgC3Y__-73" vertex="1" connectable="0">
          <mxGeometry x="0.1667" relative="1" as="geometry">
            <mxPoint x="1" y="-2" as="offset" />
          </mxGeometry>
        </mxCell>
        <mxCell id="U6xVS8FBkHO1pYgC3Y__-75" value="" style="endArrow=none;html=1;rounded=0;exitX=0;exitY=0.5;exitDx=0;exitDy=0;entryX=1;entryY=0.5;entryDx=0;entryDy=0;" parent="1" source="U6xVS8FBkHO1pYgC3Y__-72" target="U6xVS8FBkHO1pYgC3Y__-64" edge="1">
          <mxGeometry relative="1" as="geometry">
            <mxPoint x="540" y="440" as="sourcePoint" />
            <mxPoint x="450" y="520" as="targetPoint" />
          </mxGeometry>
        </mxCell>
        <mxCell id="U6xVS8FBkHO1pYgC3Y__-76" value="&lt;font face=&quot;Times New Roman&quot; style=&quot;font-size: 14px;&quot;&gt;M&lt;/font&gt;" style="edgeLabel;html=1;align=center;verticalAlign=middle;resizable=0;points=[];" parent="U6xVS8FBkHO1pYgC3Y__-75" vertex="1" connectable="0">
          <mxGeometry x="0.1667" relative="1" as="geometry">
            <mxPoint x="1" as="offset" />
          </mxGeometry>
        </mxCell>
        <mxCell id="U6xVS8FBkHO1pYgC3Y__-77" style="edgeStyle=orthogonalEdgeStyle;rounded=0;orthogonalLoop=1;jettySize=auto;html=1;exitX=0.5;exitY=1;exitDx=0;exitDy=0;" parent="1" source="U6xVS8FBkHO1pYgC3Y__-72" target="U6xVS8FBkHO1pYgC3Y__-72" edge="1">
          <mxGeometry relative="1" as="geometry" />
        </mxCell>
        <mxCell id="U6xVS8FBkHO1pYgC3Y__-78" value="&lt;font face=&quot;宋体&quot;&gt;&lt;span style=&quot;font-size: 14px;&quot;&gt;分享&lt;/span&gt;&lt;/font&gt;" style="shape=ext;margin=3;double=1;whiteSpace=wrap;html=1;align=center;" parent="1" vertex="1">
          <mxGeometry x="700.45" y="179.54" width="100" height="40" as="geometry" />
        </mxCell>
        <mxCell id="U6xVS8FBkHO1pYgC3Y__-79" value="&lt;font face=&quot;宋体&quot; style=&quot;font-size: 14px;&quot;&gt;发布&lt;/font&gt;" style="shape=rhombus;double=1;perimeter=rhombusPerimeter;whiteSpace=wrap;html=1;align=center;" parent="1" vertex="1">
          <mxGeometry x="665" y="380" width="90" height="50" as="geometry" />
        </mxCell>
        <mxCell id="U6xVS8FBkHO1pYgC3Y__-81" value="" style="endArrow=none;html=1;rounded=0;entryX=0.5;entryY=0;entryDx=0;entryDy=0;exitX=0.5;exitY=1;exitDx=0;exitDy=0;" parent="1" source="U6xVS8FBkHO1pYgC3Y__-79" target="U6xVS8FBkHO1pYgC3Y__-38" edge="1">
          <mxGeometry relative="1" as="geometry">
            <mxPoint x="370" y="315" as="sourcePoint" />
            <mxPoint x="315" y="400" as="targetPoint" />
          </mxGeometry>
        </mxCell>
        <mxCell id="U6xVS8FBkHO1pYgC3Y__-82" value="&lt;font face=&quot;Times New Roman&quot; style=&quot;font-size: 14px;&quot;&gt;M&lt;/font&gt;" style="edgeLabel;html=1;align=center;verticalAlign=middle;resizable=0;points=[];" parent="U6xVS8FBkHO1pYgC3Y__-81" vertex="1" connectable="0">
          <mxGeometry x="0.1796" y="-1" relative="1" as="geometry">
            <mxPoint x="13" y="-16" as="offset" />
          </mxGeometry>
        </mxCell>
        <mxCell id="U6xVS8FBkHO1pYgC3Y__-83" value="" style="endArrow=none;html=1;rounded=0;entryX=0.5;entryY=0;entryDx=0;entryDy=0;exitX=0.5;exitY=1;exitDx=0;exitDy=0;" parent="1" source="U6xVS8FBkHO1pYgC3Y__-78" target="U6xVS8FBkHO1pYgC3Y__-79" edge="1">
          <mxGeometry relative="1" as="geometry">
            <mxPoint x="600" y="310" as="sourcePoint" />
            <mxPoint x="455" y="395" as="targetPoint" />
          </mxGeometry>
        </mxCell>
        <mxCell id="U6xVS8FBkHO1pYgC3Y__-84" value="&lt;font face=&quot;Times New Roman&quot; style=&quot;font-size: 14px;&quot;&gt;N&lt;/font&gt;" style="edgeLabel;html=1;align=center;verticalAlign=middle;resizable=0;points=[];" parent="U6xVS8FBkHO1pYgC3Y__-83" vertex="1" connectable="0">
          <mxGeometry x="0.1796" y="-1" relative="1" as="geometry">
            <mxPoint x="9" y="-7" as="offset" />
          </mxGeometry>
        </mxCell>
        <mxCell id="U6xVS8FBkHO1pYgC3Y__-85" value="&lt;font face=&quot;宋体&quot;&gt;&lt;span style=&quot;font-size: 14px;&quot;&gt;内容&lt;/span&gt;&lt;/font&gt;" style="ellipse;whiteSpace=wrap;html=1;align=center;" parent="1" vertex="1">
          <mxGeometry x="730.45" y="119.53999999999999" width="100" height="40" as="geometry" />
        </mxCell>
        <mxCell id="U6xVS8FBkHO1pYgC3Y__-86" value="" style="endArrow=none;html=1;rounded=0;exitX=0.5;exitY=0;exitDx=0;exitDy=0;entryX=0.5;entryY=1;entryDx=0;entryDy=0;" parent="1" source="U6xVS8FBkHO1pYgC3Y__-78" target="U6xVS8FBkHO1pYgC3Y__-85" edge="1">
          <mxGeometry relative="1" as="geometry">
            <mxPoint x="460.45" y="324.54" as="sourcePoint" />
            <mxPoint x="710.45" y="149.54" as="targetPoint" />
          </mxGeometry>
        </mxCell>
        <mxCell id="U6xVS8FBkHO1pYgC3Y__-89" value="" style="endArrow=none;html=1;rounded=0;entryX=0;entryY=0.5;entryDx=0;entryDy=0;exitX=1;exitY=0.5;exitDx=0;exitDy=0;" parent="1" source="U6xVS8FBkHO1pYgC3Y__-1" target="SxoQsIVTV5Mz6jUf_GBf-5" edge="1">
          <mxGeometry relative="1" as="geometry">
            <mxPoint x="190" y="380" as="sourcePoint" />
            <mxPoint x="595" y="182.5" as="targetPoint" />
          </mxGeometry>
        </mxCell>
        <mxCell id="U6xVS8FBkHO1pYgC3Y__-91" value="&lt;font face=&quot;Times New Roman&quot;&gt;&lt;span style=&quot;font-size: 14px;&quot;&gt;M&lt;/span&gt;&lt;/font&gt;" style="edgeLabel;html=1;align=center;verticalAlign=middle;resizable=0;points=[];" parent="U6xVS8FBkHO1pYgC3Y__-89" vertex="1" connectable="0">
          <mxGeometry x="0.0212" y="2" relative="1" as="geometry">
            <mxPoint as="offset" />
          </mxGeometry>
        </mxCell>
        <mxCell id="U6xVS8FBkHO1pYgC3Y__-90" value="" style="endArrow=none;html=1;rounded=0;exitX=1;exitY=0.5;exitDx=0;exitDy=0;entryX=0;entryY=0.5;entryDx=0;entryDy=0;" parent="1" source="SxoQsIVTV5Mz6jUf_GBf-5" target="U6xVS8FBkHO1pYgC3Y__-78" edge="1">
          <mxGeometry relative="1" as="geometry">
            <mxPoint x="655" y="183" as="sourcePoint" />
            <mxPoint x="670" y="140" as="targetPoint" />
          </mxGeometry>
        </mxCell>
        <mxCell id="U6xVS8FBkHO1pYgC3Y__-92" value="&lt;font face=&quot;Times New Roman&quot; style=&quot;font-size: 14px;&quot;&gt;N&lt;/font&gt;" style="edgeLabel;html=1;align=center;verticalAlign=middle;resizable=0;points=[];" parent="U6xVS8FBkHO1pYgC3Y__-90" vertex="1" connectable="0">
          <mxGeometry x="0.2466" y="-1" relative="1" as="geometry">
            <mxPoint x="-6" y="-3" as="offset" />
          </mxGeometry>
        </mxCell>
        <mxCell id="U6xVS8FBkHO1pYgC3Y__-95" value="" style="endArrow=none;html=1;rounded=0;entryX=0.25;entryY=1;entryDx=0;entryDy=0;exitX=1;exitY=0.5;exitDx=0;exitDy=0;" parent="1" source="SxoQsIVTV5Mz6jUf_GBf-6" target="U6xVS8FBkHO1pYgC3Y__-78" edge="1">
          <mxGeometry relative="1" as="geometry">
            <mxPoint x="655" y="242.5" as="sourcePoint" />
            <mxPoint x="705" y="215" as="targetPoint" />
          </mxGeometry>
        </mxCell>
        <mxCell id="U6xVS8FBkHO1pYgC3Y__-96" value="&lt;font face=&quot;Times New Roman&quot; style=&quot;font-size: 14px;&quot;&gt;N&lt;/font&gt;" style="edgeLabel;html=1;align=center;verticalAlign=middle;resizable=0;points=[];" parent="U6xVS8FBkHO1pYgC3Y__-95" vertex="1" connectable="0">
          <mxGeometry x="0.2466" y="-1" relative="1" as="geometry">
            <mxPoint x="-7" y="8" as="offset" />
          </mxGeometry>
        </mxCell>
        <mxCell id="U6xVS8FBkHO1pYgC3Y__-97" value="" style="endArrow=none;html=1;rounded=0;entryX=0;entryY=0.5;entryDx=0;entryDy=0;exitX=1;exitY=0.75;exitDx=0;exitDy=0;" parent="1" source="U6xVS8FBkHO1pYgC3Y__-1" target="SxoQsIVTV5Mz6jUf_GBf-6" edge="1">
          <mxGeometry relative="1" as="geometry">
            <mxPoint x="560" y="210" as="sourcePoint" />
            <mxPoint x="595" y="242.5" as="targetPoint" />
          </mxGeometry>
        </mxCell>
        <mxCell id="U6xVS8FBkHO1pYgC3Y__-98" value="&lt;font face=&quot;Times New Roman&quot;&gt;&lt;span style=&quot;font-size: 14px;&quot;&gt;M&lt;/span&gt;&lt;/font&gt;" style="edgeLabel;html=1;align=center;verticalAlign=middle;resizable=0;points=[];" parent="U6xVS8FBkHO1pYgC3Y__-97" vertex="1" connectable="0">
          <mxGeometry x="0.0212" y="2" relative="1" as="geometry">
            <mxPoint as="offset" />
          </mxGeometry>
        </mxCell>
        <mxCell id="U6xVS8FBkHO1pYgC3Y__-99" value="&lt;font face=&quot;宋体&quot;&gt;&lt;span style=&quot;font-size: 14px;&quot;&gt;评论内容&lt;/span&gt;&lt;/font&gt;" style="ellipse;whiteSpace=wrap;html=1;align=center;" parent="1" vertex="1">
          <mxGeometry x="620" y="310" width="100" height="40" as="geometry" />
        </mxCell>
        <mxCell id="U6xVS8FBkHO1pYgC3Y__-100" value="" style="endArrow=none;html=1;rounded=0;exitX=0.5;exitY=1;exitDx=0;exitDy=0;entryX=0.5;entryY=0;entryDx=0;entryDy=0;" parent="1" source="SxoQsIVTV5Mz6jUf_GBf-6" target="U6xVS8FBkHO1pYgC3Y__-99" edge="1">
          <mxGeometry relative="1" as="geometry">
            <mxPoint x="625" y="265" as="sourcePoint" />
            <mxPoint x="350" y="410" as="targetPoint" />
          </mxGeometry>
        </mxCell>
        <mxCell id="U6xVS8FBkHO1pYgC3Y__-106" value="" style="endArrow=none;html=1;rounded=0;exitX=0.417;exitY=1.032;exitDx=0;exitDy=0;entryX=0.75;entryY=0;entryDx=0;entryDy=0;exitPerimeter=0;" parent="1" source="SxoQsIVTV5Mz6jUf_GBf-4" target="U6xVS8FBkHO1pYgC3Y__-1" edge="1">
          <mxGeometry relative="1" as="geometry">
            <mxPoint x="520" y="92.50000000000011" as="sourcePoint" />
            <mxPoint x="520" y="340" as="targetPoint" />
          </mxGeometry>
        </mxCell>
        <mxCell id="U6xVS8FBkHO1pYgC3Y__-111" value="&lt;font face=&quot;Times New Roman&quot; style=&quot;font-size: 14px;&quot;&gt;1&lt;/font&gt;" style="edgeLabel;html=1;align=center;verticalAlign=middle;resizable=0;points=[];" parent="U6xVS8FBkHO1pYgC3Y__-106" vertex="1" connectable="0">
          <mxGeometry x="-0.0542" y="1" relative="1" as="geometry">
            <mxPoint x="-2" y="-11" as="offset" />
          </mxGeometry>
        </mxCell>
        <mxCell id="U6xVS8FBkHO1pYgC3Y__-107" value="" style="endArrow=none;html=1;rounded=0;entryX=1;entryY=1;entryDx=0;entryDy=0;exitX=1;exitY=0;exitDx=0;exitDy=0;" parent="1" source="U6xVS8FBkHO1pYgC3Y__-1" target="SxoQsIVTV5Mz6jUf_GBf-4" edge="1">
          <mxGeometry relative="1" as="geometry">
            <mxPoint x="525" y="190" as="sourcePoint" />
            <mxPoint x="600" y="92.50000000000011" as="targetPoint" />
          </mxGeometry>
        </mxCell>
        <mxCell id="U6xVS8FBkHO1pYgC3Y__-112" value="&lt;font face=&quot;Times New Roman&quot; style=&quot;font-size: 14px;&quot;&gt;N&lt;/font&gt;" style="edgeLabel;html=1;align=center;verticalAlign=middle;resizable=0;points=[];" parent="U6xVS8FBkHO1pYgC3Y__-107" vertex="1" connectable="0">
          <mxGeometry x="-0.0056" y="-2" relative="1" as="geometry">
            <mxPoint x="-7" y="-15" as="offset" />
          </mxGeometry>
        </mxCell>
        <mxCell id="SxoQsIVTV5Mz6jUf_GBf-4" value="&lt;font face=&quot;宋体&quot; style=&quot;font-size: 14px;&quot;&gt;关注&lt;/font&gt;" style="shape=associativeEntity;whiteSpace=wrap;html=1;align=center;" vertex="1" parent="1">
          <mxGeometry x="470" y="30" width="70" height="30" as="geometry" />
        </mxCell>
        <mxCell id="SxoQsIVTV5Mz6jUf_GBf-5" value="&lt;font style=&quot;font-size: 14px;&quot; face=&quot;宋体&quot;&gt;喜爱&lt;/font&gt;" style="shape=associativeEntity;whiteSpace=wrap;html=1;align=center;" vertex="1" parent="1">
          <mxGeometry x="605" y="170" width="60" height="40" as="geometry" />
        </mxCell>
        <mxCell id="SxoQsIVTV5Mz6jUf_GBf-6" value="&lt;font face=&quot;宋体&quot; style=&quot;font-size: 14px;&quot;&gt;评论&lt;/font&gt;" style="shape=associativeEntity;whiteSpace=wrap;html=1;align=center;" vertex="1" parent="1">
          <mxGeometry x="605" y="235" width="60" height="40" as="geometry" />
        </mxCell>
        <mxCell id="SxoQsIVTV5Mz6jUf_GBf-11" value="&lt;font face=&quot;宋体&quot;&gt;&lt;span style=&quot;font-size: 14px;&quot;&gt;通知&lt;/span&gt;&lt;/font&gt;" style="shape=rhombus;perimeter=rhombusPerimeter;whiteSpace=wrap;html=1;align=center;" vertex="1" parent="1">
          <mxGeometry x="420" y="95" width="70" height="35" as="geometry" />
        </mxCell>
        <mxCell id="SxoQsIVTV5Mz6jUf_GBf-12" value="" style="endArrow=none;html=1;rounded=0;exitX=0.5;exitY=0;exitDx=0;exitDy=0;entryX=0.5;entryY=1;entryDx=0;entryDy=0;" edge="1" parent="1" source="U6xVS8FBkHO1pYgC3Y__-1" target="SxoQsIVTV5Mz6jUf_GBf-11">
          <mxGeometry relative="1" as="geometry">
            <mxPoint x="460" y="315" as="sourcePoint" />
            <mxPoint x="460" y="125" as="targetPoint" />
          </mxGeometry>
        </mxCell>
        <mxCell id="SxoQsIVTV5Mz6jUf_GBf-13" value="&lt;font face=&quot;Times New Roman&quot; style=&quot;font-size: 14px;&quot;&gt;1&lt;/font&gt;" style="edgeLabel;html=1;align=center;verticalAlign=middle;resizable=0;points=[];" vertex="1" connectable="0" parent="SxoQsIVTV5Mz6jUf_GBf-12">
          <mxGeometry x="0.045" y="-2" relative="1" as="geometry">
            <mxPoint x="-7" y="-5" as="offset" />
          </mxGeometry>
        </mxCell>
        <mxCell id="SxoQsIVTV5Mz6jUf_GBf-14" value="" style="endArrow=none;html=1;rounded=0;entryX=0;entryY=0.5;entryDx=0;entryDy=0;exitX=0.5;exitY=0;exitDx=0;exitDy=0;" edge="1" parent="1" source="SxoQsIVTV5Mz6jUf_GBf-11" target="SxoQsIVTV5Mz6jUf_GBf-4">
          <mxGeometry relative="1" as="geometry">
            <mxPoint x="510" y="200" as="sourcePoint" />
            <mxPoint x="540" y="135" as="targetPoint" />
          </mxGeometry>
        </mxCell>
        <mxCell id="SxoQsIVTV5Mz6jUf_GBf-15" value="&lt;font face=&quot;Times New Roman&quot; style=&quot;font-size: 14px;&quot;&gt;1&lt;/font&gt;" style="edgeLabel;html=1;align=center;verticalAlign=middle;resizable=0;points=[];" vertex="1" connectable="0" parent="SxoQsIVTV5Mz6jUf_GBf-14">
          <mxGeometry x="0.045" y="-2" relative="1" as="geometry">
            <mxPoint x="-7" y="2" as="offset" />
          </mxGeometry>
        </mxCell>
        <mxCell id="SxoQsIVTV5Mz6jUf_GBf-16" value="&lt;font face=&quot;宋体&quot;&gt;&lt;span style=&quot;font-size: 14px;&quot;&gt;通知&lt;/span&gt;&lt;/font&gt;" style="shape=rhombus;perimeter=rhombusPerimeter;whiteSpace=wrap;html=1;align=center;" vertex="1" parent="1">
          <mxGeometry x="520" y="300" width="70" height="40" as="geometry" />
        </mxCell>
        <mxCell id="SxoQsIVTV5Mz6jUf_GBf-17" value="" style="endArrow=none;html=1;rounded=0;exitX=0;exitY=1;exitDx=0;exitDy=0;entryX=1;entryY=0.5;entryDx=0;entryDy=0;" edge="1" parent="1" source="SxoQsIVTV5Mz6jUf_GBf-6" target="SxoQsIVTV5Mz6jUf_GBf-16">
          <mxGeometry relative="1" as="geometry">
            <mxPoint x="560" y="380" as="sourcePoint" />
            <mxPoint x="520" y="315" as="targetPoint" />
          </mxGeometry>
        </mxCell>
        <mxCell id="SxoQsIVTV5Mz6jUf_GBf-18" value="&lt;font face=&quot;Times New Roman&quot; style=&quot;font-size: 14px;&quot;&gt;1&lt;/font&gt;" style="edgeLabel;html=1;align=center;verticalAlign=middle;resizable=0;points=[];" vertex="1" connectable="0" parent="SxoQsIVTV5Mz6jUf_GBf-17">
          <mxGeometry x="0.045" y="-2" relative="1" as="geometry">
            <mxPoint y="-4" as="offset" />
          </mxGeometry>
        </mxCell>
        <mxCell id="SxoQsIVTV5Mz6jUf_GBf-19" value="" style="endArrow=none;html=1;rounded=0;exitX=0;exitY=0.5;exitDx=0;exitDy=0;entryX=0.62;entryY=1;entryDx=0;entryDy=0;entryPerimeter=0;" edge="1" parent="1" source="SxoQsIVTV5Mz6jUf_GBf-16" target="U6xVS8FBkHO1pYgC3Y__-1">
          <mxGeometry relative="1" as="geometry">
            <mxPoint x="510" y="200" as="sourcePoint" />
            <mxPoint x="470" y="135" as="targetPoint" />
          </mxGeometry>
        </mxCell>
        <mxCell id="SxoQsIVTV5Mz6jUf_GBf-20" value="&lt;font face=&quot;Times New Roman&quot; style=&quot;font-size: 14px;&quot;&gt;1&lt;/font&gt;" style="edgeLabel;html=1;align=center;verticalAlign=middle;resizable=0;points=[];" vertex="1" connectable="0" parent="SxoQsIVTV5Mz6jUf_GBf-19">
          <mxGeometry x="0.045" y="-2" relative="1" as="geometry">
            <mxPoint x="1" y="7" as="offset" />
          </mxGeometry>
        </mxCell>
        <mxCell id="SxoQsIVTV5Mz6jUf_GBf-21" value="&lt;font face=&quot;宋体&quot;&gt;&lt;span style=&quot;font-size: 14px;&quot;&gt;通知&lt;/span&gt;&lt;/font&gt;" style="shape=rhombus;perimeter=rhombusPerimeter;whiteSpace=wrap;html=1;align=center;" vertex="1" parent="1">
          <mxGeometry x="620" y="90" width="70" height="40" as="geometry" />
        </mxCell>
        <mxCell id="SxoQsIVTV5Mz6jUf_GBf-22" value="" style="endArrow=none;html=1;rounded=0;exitX=1;exitY=0;exitDx=0;exitDy=0;entryX=1;entryY=0.5;entryDx=0;entryDy=0;" edge="1" parent="1" source="SxoQsIVTV5Mz6jUf_GBf-5" target="SxoQsIVTV5Mz6jUf_GBf-21">
          <mxGeometry relative="1" as="geometry">
            <mxPoint x="530" y="330" as="sourcePoint" />
            <mxPoint x="522" y="240" as="targetPoint" />
          </mxGeometry>
        </mxCell>
        <mxCell id="SxoQsIVTV5Mz6jUf_GBf-23" value="&lt;font face=&quot;Times New Roman&quot; style=&quot;font-size: 14px;&quot;&gt;1&lt;/font&gt;" style="edgeLabel;html=1;align=center;verticalAlign=middle;resizable=0;points=[];" vertex="1" connectable="0" parent="SxoQsIVTV5Mz6jUf_GBf-22">
          <mxGeometry x="0.045" y="-2" relative="1" as="geometry">
            <mxPoint x="1" y="7" as="offset" />
          </mxGeometry>
        </mxCell>
        <mxCell id="SxoQsIVTV5Mz6jUf_GBf-24" value="" style="endArrow=none;html=1;rounded=0;exitX=1;exitY=0.25;exitDx=0;exitDy=0;entryX=0;entryY=0.5;entryDx=0;entryDy=0;" edge="1" parent="1" source="U6xVS8FBkHO1pYgC3Y__-1" target="SxoQsIVTV5Mz6jUf_GBf-21">
          <mxGeometry relative="1" as="geometry">
            <mxPoint x="675" y="180" as="sourcePoint" />
            <mxPoint x="700" y="120" as="targetPoint" />
          </mxGeometry>
        </mxCell>
        <mxCell id="SxoQsIVTV5Mz6jUf_GBf-25" value="&lt;font face=&quot;Times New Roman&quot; style=&quot;font-size: 14px;&quot;&gt;1&lt;/font&gt;" style="edgeLabel;html=1;align=center;verticalAlign=middle;resizable=0;points=[];" vertex="1" connectable="0" parent="SxoQsIVTV5Mz6jUf_GBf-24">
          <mxGeometry x="0.045" y="-2" relative="1" as="geometry">
            <mxPoint x="1" y="7" as="offset" />
          </mxGeometry>
        </mxCell>
      </root>
    </mxGraphModel>
  </diagram>
</mxfile>
